<svg width="264" height="70" viewBox="0 0 264 70" fill="none" xmlns="http://www.w3.org/2000/svg">
<g clip-path="url(#clip0_2_10)">
<path d="M87.4013 19.5768H81.8787L87.5431 1.98276H93.507L99.1478 19.5768H93.6251L92.9003 16.8495H88.1261L87.4013 19.5768ZM89.1266 12.9702H91.9077L91.0332 9.69436C90.8362 8.98119 90.6787 8.0721 90.5684 6.96709C90.5369 6.59875 90.5211 6.02665 90.5211 5.25078C90.5211 6.55173 90.4187 7.7116 90.2217 8.72257C90.1666 9.05956 90.0957 9.38872 90.009 9.69436L89.1266 12.9702Z" fill="#03428E"/>
<path d="M104.741 19.5768H99.3131V1.98276H105.111L109.177 9.07524C109.35 9.34953 109.697 10.2351 110.224 11.732L110.595 12.7273L110.807 13.2915C110.792 13.221 110.768 13.127 110.744 13.0094C110.721 12.8997 110.689 12.79 110.666 12.6959C110.445 11.6301 110.295 10.8229 110.217 10.2586C110.138 9.7022 110.106 9.23198 110.106 8.8558V1.98276H115.534V19.5768H109.901L105.529 12.1003C105.403 11.8809 105.08 11.0737 104.552 9.67869C104.402 9.29467 104.198 8.71474 103.946 7.93887C104.048 8.36991 104.174 8.98119 104.324 9.75705C104.599 11.2226 104.741 12.0768 104.741 12.3198V19.5768Z" fill="#03428E"/>
<path d="M121.215 19.5768H115.692L121.356 1.98276H127.32L132.961 19.5768H127.438L126.714 16.8495H121.939L121.215 19.5768ZM122.94 12.9702H125.721L124.847 9.69436C124.65 8.98119 124.492 8.0721 124.382 6.96709C124.35 6.59875 124.334 6.02665 124.334 5.25078C124.334 6.55173 124.232 7.7116 124.035 8.72257C123.98 9.05956 123.909 9.38872 123.822 9.69436L122.94 12.9702Z" fill="#03428E"/>
<path d="M138.555 19.5768H133.127V1.98276H138.925L142.99 9.07524C143.163 9.34953 143.51 10.2351 144.038 11.732L144.408 12.7273L144.621 13.2915C144.605 13.221 144.582 13.127 144.558 13.0094C144.526 12.8997 144.503 12.79 144.479 12.6959C144.259 11.6301 144.109 10.8229 144.03 10.2586C143.951 9.7022 143.92 9.23198 143.92 8.8558V1.98276H149.348V19.5768H143.715L139.343 12.1003C139.216 11.8809 138.893 11.0737 138.366 9.67869C138.216 9.29467 138.011 8.71474 137.759 7.93887C137.861 8.36991 137.987 8.98119 138.137 9.75705C138.413 11.2226 138.555 12.0768 138.555 12.3198V19.5768Z" fill="#03428E"/>
<path d="M154.729 11.9122L149.324 1.99059H155.335L156.887 5.59561C157.108 6.09718 157.281 6.99843 157.399 8.29153C157.415 8.40125 157.423 8.58934 157.423 8.84796C157.439 8.72257 157.447 8.61285 157.462 8.51881C157.462 8.42476 157.478 8.34639 157.486 8.29153C157.604 6.97492 157.778 6.0815 157.998 5.59561L159.558 1.99059H165.553L160.157 11.9122V19.5768H154.729V11.9122Z" fill="#03428E"/>
<path d="M167.948 19.5768H162.426L168.09 1.98276H174.054L179.695 19.5768H174.172L173.447 16.8495H168.673L167.948 19.5768ZM169.674 12.9702H172.455L171.58 9.69436C171.383 8.98119 171.226 8.0721 171.115 6.96709C171.084 6.59875 171.068 6.02665 171.068 5.25078C171.068 6.55173 170.966 7.7116 170.769 8.72257C170.714 9.05956 170.643 9.38872 170.556 9.69436L169.674 12.9702Z" fill="#03428E"/>
<path d="M88.6854 26.9906H83.2573V44.5846H88.6854V26.9906Z" fill="#03428E"/>
<path d="M95.6655 44.5768H90.2374V26.9828H96.0358L100.101 34.0752C100.274 34.3495 100.621 35.2351 101.149 36.732L101.519 37.7273L101.732 38.2915C101.716 38.221 101.692 38.127 101.669 38.0094C101.645 37.8997 101.614 37.79 101.59 37.6959C101.369 36.6301 101.22 35.8229 101.141 35.2586C101.062 34.7022 101.031 34.232 101.031 33.8558V26.9828H106.459V44.5768H100.826L96.4534 37.1003C96.3273 36.8809 96.0043 36.0737 95.4765 34.6787C95.3268 34.2947 95.1219 33.7147 94.8698 32.9389C94.9722 33.3699 95.0983 33.9812 95.248 34.7571C95.5237 36.2226 95.6655 37.0768 95.6655 37.3197V44.5768Z" fill="#03428E"/>
<path d="M110.618 31.9279H106.947V26.9906H119.726V31.9279H116.047V44.5768H110.618V31.9279Z" fill="#03428E"/>
<path d="M131.275 44.5768H120.23V26.9906H131.086V31.2382H125.658V33.4718H130.456V37.7038H125.658V40.3527H131.275V44.5768Z" fill="#03428E"/>
<path d="M138.09 44.5768H132.662V26.9828H140.225C141.643 26.9828 142.825 27.1787 143.778 27.5784C144.731 27.9781 145.448 28.5658 145.937 29.3417C146.425 30.1176 146.669 31.058 146.677 32.1552C146.677 33.3856 146.409 34.4201 145.874 35.2665C145.338 36.1129 144.605 36.6928 143.66 36.9984L143.423 37.069L143.195 37.116L147.67 44.569H141.422L138.082 37.9154V44.569L138.09 44.5768ZM138.09 34.7022H138.941C139.272 34.7022 139.555 34.6708 139.799 34.6003C140.036 34.5376 140.233 34.4357 140.382 34.3025C140.761 33.989 140.965 33.5345 140.989 32.9467C140.989 32.3981 140.831 31.9749 140.516 31.685C140.201 31.3871 139.736 31.2461 139.114 31.2461H138.09V34.71V34.7022Z" fill="#03428E"/>
<path d="M153.437 44.5768H148.009V26.9828H153.807L157.872 34.0752C158.045 34.3495 158.392 35.2351 158.92 36.732L159.29 37.7273L159.503 38.2915C159.487 38.221 159.464 38.127 159.44 38.0094C159.416 37.8997 159.385 37.79 159.361 37.6959C159.141 36.6301 158.991 35.8229 158.912 35.2586C158.833 34.7022 158.802 34.232 158.802 33.8558V26.9828H164.23V44.5768H158.597L154.224 37.1003C154.098 36.8809 153.775 36.0737 153.248 34.6787C153.098 34.2947 152.893 33.7147 152.641 32.9389C152.743 33.3699 152.869 33.9812 153.019 34.7571C153.295 36.2226 153.437 37.0768 153.437 37.3197V44.5768Z" fill="#03428E"/>
<path d="M169.91 44.5768H164.387L170.052 26.9828H176.016L181.657 44.5768H176.134L175.409 41.8495H170.635L169.91 44.5768ZM171.635 37.9702H174.416L173.542 34.6944C173.345 33.9812 173.187 33.0721 173.077 31.9671C173.046 31.5987 173.03 31.0266 173.03 30.2586C173.03 31.5596 172.927 32.7194 172.731 33.7304C172.675 34.0674 172.604 34.3965 172.518 34.7022L171.635 37.9781V37.9702Z" fill="#03428E"/>
<path d="M184.445 31.9279H180.774V26.9906H193.553V31.9279H189.874V44.5768H184.445V31.9279Z" fill="#03428E"/>
<path d="M199.485 26.9906H194.057V44.5846H199.485V26.9906Z" fill="#03428E"/>
<path d="M200.848 37.4687C200.753 36.9201 200.706 36.3558 200.706 35.7759C200.706 35.2351 200.753 34.6787 200.848 34.1223C201.045 32.9781 201.392 31.9436 201.896 31.0188C202.392 30.0862 203.022 29.2947 203.787 28.6442C204.543 27.9937 205.425 27.4922 206.41 27.1552C207.403 26.8182 208.466 26.6458 209.609 26.6458C210.751 26.6458 211.838 26.8182 212.823 27.163C213.808 27.5078 214.674 27.9937 215.423 28.6364C216.171 29.2712 216.801 30.0627 217.314 31.0031C217.826 31.9436 218.172 32.9859 218.353 34.1301C218.448 34.6552 218.495 35.2116 218.495 35.7837C218.495 36.3558 218.448 36.9122 218.353 37.4765C218.164 38.6129 217.826 39.6395 217.337 40.5564C216.849 41.4734 216.218 42.2649 215.454 42.9389C214.69 43.6129 213.823 44.1223 212.847 44.4749C211.87 44.8276 210.838 45.0078 209.75 45.0078C209.136 45.0078 208.474 44.9373 207.781 44.8041C206.56 44.5846 205.473 44.1536 204.511 43.5031C203.55 42.8605 202.762 42.0298 202.14 41.011C201.518 39.9922 201.092 38.8166 200.864 37.4765M206.315 35.7837C206.315 35.9169 206.331 36.152 206.363 36.4812C206.473 37.1317 206.686 37.6959 206.993 38.1505C207.3 38.6129 207.686 38.9655 208.143 39.2085C208.6 39.4514 209.089 39.5768 209.616 39.5768C210.144 39.5768 210.641 39.4514 211.09 39.2085C211.539 38.9655 211.917 38.6129 212.232 38.1505C212.539 37.6881 212.752 37.1317 212.862 36.4812C212.894 36.3323 212.91 36.0972 212.91 35.7837C212.91 35.4937 212.894 35.2743 212.862 35.1254C212.697 34.1771 212.319 33.4326 211.72 32.884C211.129 32.3354 210.428 32.0533 209.616 32.0533C208.805 32.0533 208.096 32.3276 207.505 32.8683C206.914 33.4091 206.536 34.1614 206.363 35.1254C206.331 35.4232 206.315 35.6426 206.315 35.7837Z" fill="#03428E"/>
<path d="M225.129 44.5768H219.701V26.9828H225.499L229.564 34.0752C229.738 34.3495 230.084 35.2351 230.612 36.732L230.982 37.7273L231.195 38.2915C231.179 38.221 231.156 38.127 231.132 38.0094C231.108 37.8997 231.077 37.79 231.053 37.6959C230.833 36.6301 230.683 35.8229 230.604 35.2586C230.525 34.7022 230.494 34.232 230.494 33.8558V26.9828H235.922V44.5768H230.289L225.917 37.1003C225.791 36.8809 225.468 36.0737 224.94 34.6787C224.79 34.2947 224.585 33.7147 224.333 32.9389C224.436 33.3699 224.562 33.9812 224.711 34.7571C224.987 36.2226 225.129 37.0768 225.129 37.3197V44.5768Z" fill="#03428E"/>
<path d="M241.602 44.5768H236.079L241.744 26.9828H247.708L253.349 44.5768H247.826L247.101 41.8495H242.327L241.602 44.5768ZM243.327 37.9702H246.108L245.234 34.6944C245.037 33.9812 244.879 33.0721 244.769 31.9671C244.738 31.5987 244.722 31.0266 244.722 30.2586C244.722 31.5596 244.619 32.7194 244.423 33.7304C244.367 34.0674 244.296 34.3965 244.21 34.7022L243.327 37.9781V37.9702Z" fill="#03428E"/>
<path d="M264 44.5768H253.514V26.9906H258.942V39.6395H264V44.5768Z" fill="#03428E"/>
<path d="M82.8712 68.0564C82.8318 68.0251 82.7767 67.9781 82.69 67.9232C82.6112 67.8605 82.5403 67.8135 82.4773 67.7665L83.8875 63.1505C84.3838 63.6912 84.9353 64.1693 85.5419 64.5768C86.4322 65.1411 87.1727 65.4781 87.7715 65.5721C88.0393 65.6191 88.2914 65.6426 88.5278 65.6426C89.1344 65.6426 89.6071 65.4624 89.938 65.1097C90.1271 64.8981 90.2216 64.6552 90.2216 64.3887C90.2216 64.0361 90.0562 63.7774 89.7332 63.6128C89.6544 63.5815 89.5913 63.5502 89.5362 63.5266C89.4811 63.4953 89.4259 63.4718 89.355 63.4404C89.2841 63.4091 89.1817 63.3777 89.0556 63.3307L87.7636 62.9624C86.9915 62.7429 86.3376 62.4922 85.794 62.2257C85.2504 61.9514 84.8014 61.6379 84.4547 61.2774C84.1002 60.9169 83.8008 60.4937 83.5566 60.0157C83.2021 59.3417 83.0209 58.5815 83.0209 57.7351C83.0209 56.4969 83.4069 55.3448 84.1869 54.2633C84.565 53.7147 85.0377 53.2445 85.5971 52.8605C86.1564 52.4765 86.8103 52.1787 87.5509 51.9671C88.2914 51.7555 89.1108 51.6458 90.001 51.6458C90.2058 51.6458 90.521 51.6614 90.9543 51.6928C91.5215 51.7555 92.0888 51.8574 92.6481 51.9906C93.6329 52.2414 94.5074 52.6019 95.2716 53.0564L93.6171 57.3433C93.4832 57.2414 93.3178 57.1395 93.1287 57.0219C91.9706 56.3166 90.9622 55.9561 90.0877 55.9561C89.8356 55.9561 89.6229 55.9796 89.4574 56.0266C89.2132 56.105 89.0162 56.2304 88.8823 56.395C88.7484 56.5674 88.6775 56.7476 88.6775 56.9436C88.6775 57.0846 88.7326 57.2335 88.835 57.3824C88.9768 57.6019 89.1738 57.7743 89.418 57.8918C89.6623 58.0094 90.1822 58.174 90.9779 58.3777C91.0961 58.4091 91.2064 58.4404 91.3088 58.4718C91.4112 58.5031 91.5452 58.5423 91.7027 58.5893C93.0105 59.0282 93.9953 59.663 94.6571 60.4859C95.3188 61.3088 95.6497 62.3197 95.6497 63.5266C95.6497 64.0047 95.5867 64.5533 95.4606 65.1724C95.1613 66.6144 94.405 67.7821 93.1996 68.6755C91.9942 69.569 90.4973 70.0157 88.7169 70.0157C88.3387 70.0157 87.9448 69.9922 87.5509 69.9451C86.2588 69.8041 85.0535 69.4201 83.9269 68.8009C83.5015 68.558 83.1469 68.315 82.8554 68.0799" fill="#03428E"/>
<path d="M107.27 51.8495C108.121 52.0219 108.917 52.2962 109.657 52.6802C110.39 53.0564 111.075 53.5423 111.698 54.1458L109.051 57.9937C108.964 57.931 108.87 57.8683 108.767 57.7978C108.673 57.7273 108.594 57.6802 108.539 57.6489C107.782 57.2022 106.971 56.9749 106.104 56.9749C105.797 56.9749 105.569 56.9906 105.419 57.0219C104.781 57.116 104.206 57.3433 103.709 57.7116C103.213 58.0721 102.827 58.5266 102.551 59.0596C102.275 59.5925 102.141 60.1724 102.141 60.7837C102.141 61.395 102.268 61.9671 102.535 62.5235C102.843 63.2132 103.315 63.7539 103.953 64.1536C104.584 64.5533 105.293 64.7492 106.065 64.7492C106.411 64.7492 106.727 64.7179 107.018 64.6552C107.751 64.5219 108.444 64.1693 109.082 63.5893L111.658 67.4608C110.768 68.2759 109.783 68.9028 108.688 69.3339C107.593 69.7649 106.459 69.9765 105.277 69.9765C104.899 69.9765 104.505 69.953 104.111 69.906C102.835 69.7492 101.7 69.3809 100.7 68.8166C99.6992 68.2445 98.872 67.4765 98.2024 66.4969C97.5327 65.5251 97.0521 64.3965 96.7606 63.1034C96.6267 62.5 96.5479 61.826 96.5243 61.0972C96.5243 59.6865 96.7449 58.4013 97.1861 57.2492C97.6272 56.0893 98.2496 55.094 99.0611 54.2555C99.8647 53.4169 100.802 52.7743 101.866 52.3276C102.929 51.8809 104.072 51.6614 105.277 51.6614C105.962 51.6614 106.632 51.7241 107.27 51.8574" fill="#03428E"/>
<path d="M117.992 69.5846H112.564V51.9906H117.992V57.8762L122.318 57.8527V51.9906H127.746V69.5846H122.318V62.79H117.992V69.5846Z" fill="#03428E"/>
<path d="M129.109 62.4686C129.014 61.9201 128.967 61.3558 128.967 60.7759C128.967 60.2351 129.014 59.6787 129.109 59.1223C129.306 57.9781 129.652 56.9436 130.157 56.0188C130.653 55.0862 131.283 54.2947 132.047 53.6442C132.804 52.9937 133.686 52.4922 134.671 52.1552C135.663 51.8182 136.727 51.6458 137.869 51.6458C139.012 51.6458 140.099 51.8182 141.084 52.163C142.068 52.5078 142.935 52.9937 143.683 53.6364C144.432 54.2712 145.062 55.0627 145.574 56.0031C146.086 56.9436 146.433 57.9859 146.614 59.1301C146.709 59.6552 146.756 60.2116 146.756 60.7837C146.756 61.3558 146.709 61.9122 146.614 62.4765C146.425 63.6129 146.086 64.6395 145.598 65.5564C145.109 66.4734 144.479 67.2649 143.715 67.9389C142.951 68.6129 142.084 69.1223 141.107 69.4749C140.13 69.8276 139.098 70.0078 138.011 70.0078C137.397 70.0078 136.735 69.9373 136.042 69.8041C134.82 69.5846 133.733 69.1536 132.772 68.5031C131.811 67.8605 131.023 67.0298 130.401 66.011C129.778 64.9922 129.353 63.8166 129.124 62.4765M134.576 60.7837C134.576 60.9169 134.592 61.152 134.624 61.4812C134.734 62.1317 134.947 62.6959 135.254 63.1505C135.561 63.6129 135.947 63.9655 136.404 64.2085C136.861 64.4514 137.349 64.5768 137.877 64.5768C138.405 64.5768 138.901 64.4514 139.35 64.2085C139.8 63.9655 140.178 63.6129 140.493 63.1505C140.8 62.6881 141.013 62.1317 141.123 61.4812C141.155 61.3323 141.17 61.0972 141.17 60.7837C141.17 60.4937 141.155 60.2743 141.123 60.1254C140.958 59.1771 140.579 58.4326 139.981 57.884C139.39 57.3354 138.689 57.0533 137.877 57.0533C137.066 57.0533 136.357 57.3276 135.766 57.8683C135.175 58.4091 134.797 59.1614 134.624 60.1254C134.592 60.4232 134.576 60.6426 134.576 60.7837Z" fill="#03428E"/>
<path d="M147.772 62.4686C147.678 61.9201 147.63 61.3558 147.63 60.7759C147.63 60.2351 147.678 59.6787 147.772 59.1223C147.969 57.9781 148.316 56.9436 148.82 56.0188C149.316 55.0862 149.947 54.2947 150.711 53.6442C151.467 52.9937 152.349 52.4922 153.334 52.1552C154.327 51.8182 155.39 51.6458 156.525 51.6458C157.659 51.6458 158.754 51.8182 159.739 52.163C160.724 52.5078 161.591 52.9937 162.339 53.6364C163.087 54.2712 163.718 55.0627 164.23 56.0031C164.742 56.9436 165.089 57.9859 165.27 59.1301C165.364 59.6552 165.412 60.2116 165.412 60.7837C165.412 61.3558 165.364 61.9122 165.27 62.4765C165.081 63.6129 164.742 64.6395 164.253 65.5564C163.765 66.4734 163.135 67.2649 162.371 67.9389C161.606 68.6129 160.74 69.1223 159.763 69.4749C158.786 69.8276 157.754 70.0078 156.667 70.0078C156.052 70.0078 155.39 69.9373 154.697 69.8041C153.476 69.5846 152.389 69.1536 151.428 68.5031C150.467 67.8605 149.679 67.0298 149.056 66.011C148.434 64.9922 148.009 63.8166 147.78 62.4765M153.232 60.7837C153.232 60.9169 153.248 61.152 153.279 61.4812C153.389 62.1317 153.602 62.6959 153.909 63.1505C154.217 63.6129 154.603 63.9655 155.06 64.2085C155.517 64.4514 156.005 64.5768 156.533 64.5768C157.061 64.5768 157.557 64.4514 158.006 64.2085C158.455 63.9655 158.833 63.6129 159.148 63.1505C159.456 62.6881 159.668 62.1317 159.779 61.4812C159.81 61.3323 159.826 61.0972 159.826 60.7837C159.826 60.4937 159.81 60.2743 159.779 60.1254C159.613 59.1771 159.235 58.4326 158.636 57.884C158.045 57.3354 157.344 57.0533 156.533 57.0533C155.721 57.0533 155.012 57.3276 154.429 57.8683C153.838 58.4091 153.46 59.1614 153.287 60.1254C153.255 60.4232 153.24 60.6426 153.24 60.7837" fill="#03428E"/>
<path d="M177.103 69.5846H166.617V51.9906H172.045V64.6473H177.103V69.5846Z" fill="#03428E"/>
<path d="M33.7032 39.0282L38.4538 26.4734L43.1886 38.9812C55.3447 40.2273 66.0355 46.4185 73.2126 55.4859L49.8772 0H27.4321L4.08887 55.4859C11.1872 46.5204 21.7204 40.3683 33.7032 39.0282Z" fill="#F58220"/>
<path d="M15.9771 69.7335C20.6174 62.884 28.4877 58.3777 37.4217 58.3777C46.3556 58.3777 54.226 62.884 58.8662 69.7335H74.8433C69.0528 54.7884 54.4859 44.185 37.4217 44.185C20.3574 44.185 5.79051 54.7884 0 69.7335H15.9771Z" fill="#03428E"/>
</g>
<defs>
<clipPath id="clip0_2_10">
<rect width="264" height="70" fill="white"/>
</clipPath>
</defs>
</svg>
